<svg width="256" height="256" viewBox="0 0 256 256" fill="none" xmlns="http://www.w3.org/2000/svg">
<mask id="mask0_0_1" style="mask-type:alpha" maskUnits="userSpaceOnUse" x="14" y="58" width="123" height="140">
<path d="M135.893 95.5965C132.248 116.117 129.305 136.347 125.621 157.08C124.588 162.896 122.618 168.297 119.709 173.282C116.801 178.267 112.859 182.595 107.883 186.264C102.906 189.934 96.9207 192.807 89.9255 194.884C82.9304 196.961 75.2067 198 66 198H14L38 58H96C111.763 58 123.13 61.4275 129.445 68.2821C135.761 75.1365 137.91 84.2414 135.893 95.5965ZM69 176C77.3699 176 84.3978 173.974 89.7804 170.374C95.1628 166.774 98.4074 161.858 99.5143 155.626C102.149 140.794 105 125 105 125H101L81 142L82 136H52L54 125L45 176H69ZM105 125C105 125 108.581 103.282 109.688 97.0504C110.623 91.7884 109.541 87.6686 106.443 84.6915C103.345 81.7143 99.2774 81 93 81H62L54 125L56 114H86L87 108L101 125H105Z" fill="#0055FF"/>
</mask>
<g mask="url(#mask0_0_1)">
<path d="M110 94L95 164H137V198H45L70 58H137V94H110Z" fill="#0055FF"/>
<path d="M38 58L14 198H41L66 58H38Z" fill="#0055FF"/>
<path d="M62 103L75.5 92.5L101.5 125L68.5 153.5L55 142L62 103Z" fill="#03B80A"/>
</g>
<mask id="mask1_0_1" style="mask-type:alpha" maskUnits="userSpaceOnUse" x="99" y="98" width="144" height="62">
<path d="M125.422 140.609H117.259L112.878 160H99L110 98H133.922C139.689 98 143.392 99.4742 145.828 102.422C147.611 104.69 148.503 107.582 148.503 111.097C148.503 112.288 148.406 113.535 148.212 114.84L146.684 124.45C145.919 129.156 143.673 133.023 139.943 136.05C136.224 139.09 130.771 140.609 125.422 140.609ZM128.724 111.267H121.748L119.299 127.342H126.126C130.293 127.342 132.713 125.272 133.386 121.133L133.906 117.646C134.018 117.136 134.074 116.455 134.074 115.605C134.074 114.754 133.692 113.819 132.927 112.798C132.163 111.778 130.762 111.267 128.724 111.267ZM186.158 160H173.499V146.222H161.905L157.45 160H142.853L164.416 98H186.158V160ZM173.499 112.883H171.762L164.416 134.486H173.499V112.883ZM214.172 119.517H215.93L229.244 98H243L219.064 135.676L213.795 160H199.962L205.231 135.676L194.012 98H208.609L214.172 119.517Z" fill="white"/>
</mask>
<g mask="url(#mask1_0_1)">
<path d="M106.119 94H247L234.881 164H94L106.119 94Z" fill="#03B80A"/>
</g>
</svg>
