<?xml version="1.0" standalone="no"?>
<!DOCTYPE svg PUBLIC "-//W3C//DTD SVG 20010904//EN"
 "http://www.w3.org/TR/2001/REC-SVG-20010904/DTD/svg10.dtd">
<svg version="1.0" xmlns="http://www.w3.org/2000/svg"
 width="256.000000pt" height="256.000000pt" viewBox="0 0 256.000000 256.000000"
 preserveAspectRatio="xMidYMid meet">
<metadata>
Created by potrace 1.14, written by Peter Selinger 2001-2017
</metadata>
<g transform="translate(0.000000,256.000000) scale(0.100000,-0.100000)"
fill="#000000" stroke="none">
<path d="M371 1928 c-11 -60 -25 -138 -26 -153 -1 -9 -13 -75 -21 -120 -8 -41
-35 -201 -39 -230 -2 -16 -8 -53 -14 -82 -6 -29 -13 -74 -17 -100 -3 -26 -8
-51 -10 -54 -1 -3 -6 -28 -9 -55 -4 -27 -8 -56 -10 -64 -3 -8 -7 -33 -10 -55
-5 -38 -9 -57 -20 -115 -9 -44 -14 -73 -30 -170 -8 -52 -17 -107 -20 -122 l-5
-28 135 0 c131 0 135 1 140 23 6 26 9 45 36 202 25 151 26 155 33 185 3 14 8
41 10 60 3 19 19 109 36 200 17 91 33 181 36 200 6 41 9 57 24 130 6 30 13 73
16 94 2 22 9 58 14 80 5 23 11 61 15 86 4 25 10 63 15 85 5 22 10 43 10 48 0
4 -63 7 -139 7 l-140 0 -10 -52z"/>
<path d="M694 1948 c-4 -18 -8 -42 -10 -53 -2 -11 -6 -33 -9 -50 -3 -16 -7
-45 -10 -62 l-6 -33 158 0 c87 0 173 -4 192 -10 46 -13 79 -46 87 -87 l6 -33
128 0 c93 0 129 3 132 13 11 28 -1 126 -19 168 -27 61 -72 105 -137 135 -77
35 -130 42 -328 44 l-176 1 -8 -33z"/>
<path d="M1094 1543 c-4 -21 -9 -47 -11 -58 -2 -11 -6 -31 -8 -45 -8 -47 -75
-425 -81 -452 l-6 -28 71 0 c58 0 70 3 75 18 2 9 12 52 21 95 9 42 20 77 24
78 3 0 35 2 71 3 76 3 122 21 167 64 58 56 88 248 48 308 -28 44 -71 54 -224
54 l-140 0 -7 -37z m237 -114 c6 -8 8 -34 5 -59 -5 -54 -37 -87 -82 -84 -16 1
-36 3 -45 3 -14 1 -15 9 -4 71 7 39 10 70 8 70 -2 0 -1 4 2 10 9 14 105 6 116
-11z"/>
<path d="M1637 1563 c-5 -17 -122 -355 -181 -522 -14 -41 -26 -76 -26 -78 0
-2 33 -3 73 -3 l73 0 22 69 23 69 53 0 c62 -1 64 -4 61 -85 l-2 -53 63 0 64 0
0 310 0 310 -109 0 c-95 0 -109 -2 -114 -17z m98 -244 c0 -54 -2 -99 -5 -100
-27 -6 -80 -3 -80 4 0 8 39 125 62 186 15 41 22 13 23 -90z"/>
<path d="M1943 1568 c2 -7 28 -92 56 -188 41 -137 51 -182 45 -210 -4 -19 -9
-44 -11 -54 -2 -11 -10 -49 -18 -84 -8 -35 -15 -65 -15 -68 0 -2 31 -4 69 -4
63 0 69 2 74 23 3 12 16 67 27 121 23 105 22 103 224 419 l37 57 -70 0 -70 0
-63 -105 c-35 -57 -68 -106 -74 -109 -8 -3 -22 36 -40 105 l-28 109 -74 0
c-55 0 -73 -3 -69 -12z"/>
<path d="M861 1463 c7 -42 4 -43 -130 -43 l-130 0 -11 -57 c-7 -31 -13 -66
-15 -77 -1 -12 -5 -36 -9 -53 l-8 -33 132 0 132 0 -7 -32 -7 -33 28 26 c16 14
44 39 63 55 19 16 52 44 73 63 l38 33 -43 52 c-70 85 -90 106 -99 106 -4 0 -7
-3 -7 -7z"/>
<path d="M934 889 c-16 -18 -54 -43 -84 -57 -49 -23 -71 -26 -208 -30 -146 -4
-152 -5 -156 -26 -2 -11 -9 -46 -15 -76 -5 -30 -13 -70 -16 -89 l-7 -33 183 5
c206 5 262 16 375 73 103 51 187 140 223 237 l11 27 -138 0 -138 0 -30 -31z"/>
</g>
</svg>
