<?xml version="1.0" standalone="no"?>
<!DOCTYPE svg PUBLIC "-//W3C//DTD SVG 20010904//EN"
 "http://www.w3.org/TR/2001/REC-SVG-20010904/DTD/svg10.dtd">
<svg version="1.0" xmlns="http://www.w3.org/2000/svg"
 width="512.000000pt" height="512.000000pt" viewBox="0 0 512.000000 512.000000"
 preserveAspectRatio="xMidYMid meet">
<metadata>
Created by potrace 1.14, written by Peter Selinger 2001-2017
</metadata>
<g transform="translate(0.000000,512.000000) scale(0.100000,-0.100000)"
fill="#000000" stroke="none">
<path d="M646 3988 c-3 -13 -14 -77 -26 -143 -12 -66 -28 -154 -35 -195 -18
-95 -55 -307 -60 -340 -2 -14 -22 -124 -44 -245 -22 -121 -43 -236 -46 -255
-5 -34 -23 -129 -51 -280 -7 -41 -16 -91 -20 -110 -3 -19 -14 -82 -24 -140
-26 -144 -50 -281 -54 -305 -2 -11 -15 -83 -29 -160 -30 -162 -25 -133 -77
-430 -23 -126 -44 -240 -47 -252 l-5 -23 276 0 276 0 5 22 c8 41 26 142 31
178 3 19 9 55 14 80 5 25 19 97 29 160 11 63 31 176 45 250 13 74 27 153 31
175 3 22 7 47 10 55 2 8 6 31 9 50 3 19 17 98 31 175 14 77 30 165 35 195 6
30 12 66 15 80 3 14 12 66 20 115 15 86 80 443 90 495 2 13 7 42 11 65 3 22 9
58 14 80 5 22 12 60 15 85 4 25 13 77 21 115 8 39 17 88 20 110 3 22 11 72 19
110 12 64 20 106 31 175 2 14 9 47 14 73 6 26 10 50 10 52 0 3 -124 5 -275 5
l-275 0 -4 -22z"/>
<path d="M1269 3953 c0 -4 -2 -15 -4 -23 -2 -8 -8 -44 -14 -80 -6 -36 -13 -75
-15 -86 -2 -12 -7 -39 -10 -60 -4 -22 -13 -74 -21 -118 -8 -43 -15 -80 -15
-82 0 -2 136 -4 303 -4 392 0 447 -12 517 -106 l25 -33 279 -1 279 0 -7 70
c-20 220 -148 383 -361 463 -138 52 -249 64 -619 66 -185 1 -336 -1 -337 -6z"/>
<path d="M2037 3273 c-3 -5 -8 -29 -12 -53 -3 -25 -8 -52 -10 -60 -2 -8 -7
-31 -10 -50 -3 -19 -21 -120 -40 -225 -19 -104 -37 -206 -40 -225 -3 -19 -19
-107 -35 -195 -56 -310 -92 -510 -96 -540 -3 -16 -7 -40 -10 -53 l-5 -22 163
2 162 3 47 207 c26 114 49 213 52 221 4 11 35 14 140 14 207 2 322 39 423 139
78 77 109 151 138 324 29 180 29 296 -1 360 -27 57 -75 103 -138 132 -49 22
-60 23 -386 26 -186 2 -339 0 -342 -5z m509 -318 c25 -16 59 -79 50 -93 -2 -4
-7 -33 -10 -64 -10 -86 -29 -129 -69 -162 -36 -28 -41 -29 -152 -31 l-116 -2
5 26 c5 22 17 100 49 310 5 32 19 36 126 35 67 -1 98 -6 117 -19z"/>
<path d="M3210 3258 c-5 -13 -28 -77 -50 -143 -23 -66 -51 -147 -63 -180 -12
-33 -22 -64 -24 -70 -1 -5 -27 -82 -58 -170 -31 -88 -81 -230 -110 -315 -30
-85 -83 -239 -119 -342 l-65 -188 168 0 169 0 51 159 51 158 134 1 133 1 1
-132 c1 -73 1 -144 1 -159 l1 -28 145 0 145 0 0 715 0 715 -250 0 c-250 0
-250 0 -260 -22z m217 -571 l3 -246 -96 -3 c-53 -2 -100 -1 -105 2 -6 4 84
288 156 487 2 6 12 10 22 9 17 -3 18 -20 20 -249z"/>
<path d="M3853 3265 c5 -13 104 -338 177 -585 16 -52 40 -135 55 -183 30 -97
31 -75 -16 -272 -5 -22 -11 -51 -13 -65 -2 -14 -18 -87 -35 -163 -17 -76 -31
-140 -31 -142 0 -3 72 -5 159 -5 143 0 160 2 165 18 5 16 73 325 103 467 8 39
27 90 42 115 33 53 448 702 496 775 l33 50 -156 3 c-116 2 -159 -1 -167 -10
-7 -7 -78 -119 -158 -248 -164 -264 -176 -275 -201 -185 -8 27 -35 131 -60
230 -26 99 -49 188 -52 198 -5 15 -22 17 -176 17 -144 0 -169 -2 -165 -15z"/>
<path d="M1425 2825 c-93 -36 -175 -65 -182 -65 -12 0 -19 -16 -28 -67 l-5
-33 320 0 320 0 0 23 c0 12 3 32 6 45 l6 22 -142 0 c-130 0 -141 1 -136 18 7
25 19 122 14 122 -1 -1 -79 -30 -173 -65z"/>
<path d="M1210 2610 c-5 -3 -12 -25 -16 -48 -6 -37 -4 -42 12 -43 88 -4 606
-1 610 4 4 3 9 25 11 49 l5 43 -307 0 c-169 0 -311 -2 -315 -5z"/>
<path d="M1177 2463 c-2 -5 -7 -25 -11 -45 l-7 -38 141 0 c78 0 139 -3 137 -7
-3 -5 -8 -36 -11 -70 l-7 -63 58 21 c32 11 67 24 78 29 11 5 58 23 105 40 47
18 97 36 113 42 17 7 27 18 28 32 0 11 2 31 5 44 l4 22 -314 0 c-173 0 -317
-3 -319 -7z"/>
<path d="M1699 1749 c-42 -37 -139 -89 -202 -109 -100 -32 -168 -38 -412 -39
-126 -1 -230 -3 -232 -5 -2 -2 -12 -50 -23 -107 -11 -57 -22 -117 -25 -134 -3
-16 -8 -45 -11 -64 -2 -19 -9 -52 -14 -75 -5 -23 -10 -45 -10 -50 0 -8 609 -3
645 7 11 2 42 8 69 11 27 4 52 9 55 11 3 1 22 6 41 9 59 9 190 56 279 99 188
92 331 229 417 399 l34 68 -293 0 c-284 0 -295 -1 -318 -21z"/>
</g>
</svg>
