<svg width="768" height="384" viewBox="0 0 768 384" fill="none" xmlns="http://www.w3.org/2000/svg">
<path d="M60 47L8 337H63L115 47H60Z" fill="#0055FF"/>
<path d="M431.005 169.628H426.915L413.969 120H380L406.106 206.898L393.846 263H426.036L438.297 206.898L494 120H461.988L431.005 169.628Z" fill="#03B80A"/>
<path d="M367 263H337.767V231.222H310.996L300.707 263H267L316.793 120H367V263ZM337.767 154.328H333.756L316.793 204.152H337.767V154.328Z" fill="#03B80A"/>
<path d="M234.381 218.276H215.417L205.239 263H173L198.554 120H254.127C267.525 120 276.129 123.4 281.786 130.2C285.929 135.431 288 142.101 288 150.208C288 152.955 287.775 155.832 287.325 158.84L283.775 181.006C281.999 191.86 276.78 200.778 268.116 207.762C259.475 214.771 246.809 218.276 234.381 218.276ZM242.053 150.601H225.847L220.158 187.675H236.016C245.698 187.675 251.32 182.902 252.882 173.355L254.09 165.313C254.35 164.136 254.48 162.567 254.48 160.605C254.48 158.643 253.593 156.486 251.817 154.132C250.042 151.778 246.787 150.601 242.053 150.601Z" fill="#03B80A"/>
<mask id="mask0_0_1" style="mask-type:alpha" maskUnits="userSpaceOnUse" x="72" y="52" width="182" height="280">
<path d="M252.531 127.193C245.22 168.234 239.314 208.694 231.925 250.16C229.853 261.792 225.899 272.594 220.065 282.564C214.231 292.534 206.322 301.189 196.339 308.528C186.356 315.867 174.348 321.614 160.315 325.768C146.282 329.923 130.788 332 112.318 332H72L80 288H118.336C135 288 149.226 283.949 160.024 276.748C170.822 269.547 177.304 259.865 179.551 247.252L190.556 186L199.961 130.101C201.83 119.61 199.666 111.337 193.451 105.383C187.235 99.4286 179 98 166.483 98H114L122 52H172.501C204.124 52 226.927 58.8549 239.597 72.5642C252.266 86.2729 256.577 104.483 252.531 127.193Z" fill="#0055FF"/>
</mask>
<g mask="url(#mask0_0_1)">
<path d="M195 112L164.5 271H257.5L257 332H72L122 52H257V112H195Z" fill="#0055FF"/>
</g>
<path d="M111 210H138.787L136.776 224L174.491 210L176 201H112.638L111 210Z" fill="#FF5050"/>
<path d="M115.167 186.75L114.334 191.5L113.501 196.25H176.838L177.669 191.5L178.501 186.75H115.167Z" fill="#0055FF"/>
<path d="M181 173H153.213L155.224 159L117.509 173L116 182H179.362L181 173Z" fill="#03B80A"/>
<path d="M240.3 274.76L248.1 303.98L257.7 274.76H267.06L276.66 303.98L284.46 274.76H296.76L283.26 320H271.26L262.38 293.78L253.5 320H241.5L228 274.76H240.3ZM327.269 284.72H313.289V292.28H326.489V302.24H313.289V310.04H327.269V320H301.529V274.76H327.269V284.72ZM347.508 310.88H350.088C353.048 310.88 355.168 310.5 356.448 309.74C357.728 308.98 358.368 307.76 358.368 306.08C358.368 304.4 357.728 303.18 356.448 302.42C355.168 301.66 353.048 301.28 350.088 301.28H347.508V310.88ZM347.508 292.52H349.668C353.348 292.52 355.188 291.06 355.188 288.14C355.188 285.22 353.348 283.76 349.668 283.76H347.508V292.52ZM335.748 274.76H353.268C357.428 274.76 360.588 275.76 362.748 277.76C364.908 279.76 365.988 282.64 365.988 286.4C365.988 288.68 365.568 290.58 364.728 292.1C363.928 293.58 362.688 294.84 361.008 295.88C362.688 296.2 364.108 296.7 365.268 297.38C366.468 298.02 367.428 298.82 368.148 299.78C368.908 300.74 369.448 301.82 369.768 303.02C370.088 304.22 370.248 305.5 370.248 306.86C370.248 308.98 369.868 310.86 369.108 312.5C368.388 314.14 367.348 315.52 365.988 316.64C364.668 317.76 363.048 318.6 361.128 319.16C359.208 319.72 357.048 320 354.648 320H335.748V274.76ZM390.491 292.4C390.811 292.44 391.071 292.46 391.271 292.46C391.511 292.46 391.711 292.46 391.871 292.46C393.351 292.46 394.551 292.02 395.471 291.14C396.391 290.26 396.851 289.12 396.851 287.72C396.851 286.36 396.411 285.26 395.531 284.42C394.691 283.58 393.591 283.16 392.231 283.16C390.791 283.16 389.631 283.64 388.751 284.6C387.871 285.56 387.431 286.8 387.431 288.32H376.571C376.851 285.96 377.431 283.86 378.311 282.02C379.231 280.18 380.391 278.64 381.791 277.4C383.191 276.12 384.831 275.16 386.711 274.52C388.591 273.84 390.671 273.5 392.951 273.5C395.191 273.5 397.211 273.82 399.011 274.46C400.851 275.06 402.411 275.94 403.691 277.1C405.011 278.22 406.011 279.6 406.691 281.24C407.411 282.84 407.771 284.64 407.771 286.64C407.771 288.8 407.351 290.58 406.511 291.98C405.711 293.34 404.551 294.52 403.031 295.52C405.351 296.24 407.151 297.54 408.431 299.42C409.751 301.26 410.411 303.54 410.411 306.26C410.411 308.5 409.971 310.54 409.091 312.38C408.211 314.22 406.971 315.8 405.371 317.12C403.811 318.44 401.931 319.46 399.731 320.18C397.571 320.9 395.191 321.26 392.591 321.26C389.111 321.26 385.971 320.58 383.171 319.22C380.371 317.86 378.131 315.7 376.451 312.74C375.691 311.42 375.171 310.1 374.891 308.78C374.651 307.46 374.531 306.12 374.531 304.76H386.171C386.251 306.88 386.871 308.5 388.031 309.62C389.191 310.7 390.751 311.24 392.711 311.24C394.791 311.24 396.311 310.68 397.271 309.56C398.231 308.44 398.711 307.06 398.711 305.42C398.711 303.46 398.131 301.98 396.971 300.98C395.811 299.98 394.431 299.48 392.831 299.48C392.431 299.48 392.051 299.52 391.691 299.6C391.331 299.64 390.931 299.7 390.491 299.78V292.4ZM450.223 295.52H454.123C458.443 295.52 460.603 293.64 460.603 289.88C460.603 286.12 458.443 284.24 454.123 284.24H450.223V295.52ZM450.223 320H438.463V274.76H457.183C462.263 274.76 466.143 276.08 468.823 278.72C471.543 281.36 472.903 285.08 472.903 289.88C472.903 294.68 471.543 298.4 468.823 301.04C466.143 303.68 462.263 305 457.183 305H450.223V320ZM501.207 303.2L495.927 288.14L490.647 303.2H501.207ZM504.327 312.14H487.527L484.827 320H472.287L489.507 274.76H502.347L519.567 320H507.027L504.327 312.14ZM531.355 298.28L514.855 274.76H528.895L537.295 287.12L545.635 274.76H559.675L543.115 298.28V320H531.355V298.28ZM561.755 320L569.435 274.76H581.075L590.135 298.88L599.135 274.76H610.775L618.455 320H606.755L602.855 293.96L592.175 320H587.495L577.355 293.96L573.455 320H561.755ZM651.644 284.72H637.664V292.28H650.864V302.24H637.664V310.04H651.644V320H625.904V274.76H651.644V284.72ZM660.123 320V274.76H671.883L693.603 302.42V274.76H705.303V320H693.603L671.883 292.34V320H660.123ZM731.951 284.72V320H720.191V284.72H710.531V274.76H741.611V284.72H731.951Z" fill="#8000FF"/>
</svg>
