<svg width="512" height="512" viewBox="0 0 512 512" fill="none" xmlns="http://www.w3.org/2000/svg">
<path d="M65 111L13 401H68L120 111H65Z" fill="#0055FF"/>
<path d="M436.005 233.628H431.915L418.969 184H385L411.106 270.898L398.846 327H431.036L443.297 270.898L499 184H466.988L436.005 233.628Z" fill="#03B80A"/>
<path d="M372 327H342.767V295.222H315.996L305.707 327H272L321.793 184H372V327ZM342.767 218.328H338.756L321.793 268.152H342.767V218.328Z" fill="#03B80A"/>
<path d="M239.381 282.276H220.417L210.239 327H178L203.554 184H259.127C272.525 184 281.129 187.4 286.786 194.2C290.929 199.431 293 206.101 293 214.208C293 216.955 292.775 219.832 292.325 222.84L288.775 245.006C286.999 255.86 281.78 264.778 273.116 271.762C264.475 278.771 251.809 282.276 239.381 282.276ZM247.053 214.601H230.847L225.158 251.675H241.016C250.698 251.675 256.32 246.902 257.882 237.355L259.09 229.313C259.35 228.136 259.48 226.567 259.48 224.605C259.48 222.643 258.593 220.486 256.817 218.132C255.042 215.778 251.787 214.601 247.053 214.601Z" fill="#03B80A"/>
<mask id="mask0_0_1" style="mask-type:alpha" maskUnits="userSpaceOnUse" x="77" y="116" width="182" height="280">
<path d="M257.531 191.193C250.22 232.234 244.314 272.694 236.925 314.16C234.853 325.792 230.899 336.594 225.065 346.564C219.231 356.534 211.322 365.189 201.339 372.528C191.356 379.867 179.348 385.614 165.315 389.768C151.282 393.923 135.788 396 117.318 396H77L85 352H123.336C140 352 154.226 347.949 165.024 340.748C175.822 333.547 182.304 323.865 184.551 311.252L195.556 250L204.961 194.101C206.83 183.61 204.666 175.337 198.451 169.383C192.235 163.429 184 162 171.483 162H119L127 116H177.501C209.124 116 231.927 122.855 244.597 136.564C257.266 150.273 261.577 168.483 257.531 191.193Z" fill="#0055FF"/>
</mask>
<g mask="url(#mask0_0_1)">
<path d="M200 176L169.5 335H262.5L262 396H77L127 116H262V176H200Z" fill="#0055FF"/>
</g>
<path d="M116 274H143.787L141.776 288L179.491 274L181 265H117.638L116 274Z" fill="#FF5050"/>
<path d="M120.167 250.75L119.334 255.5L118.501 260.25H181.838L182.669 255.5L183.501 250.75H120.167Z" fill="#0055FF"/>
<path d="M186 237H158.213L160.224 223L122.509 237L121 246H184.362L186 237Z" fill="#03B80A"/>
</svg>
